# xmcd CD database file
#
# Track frame offsets:
#	150
#	17815
#	39175
#	63350
#	87230
#	114430
#	134025
#	154510
#	175080
#	199590
#	223345
#	245350
#
# Disc length: 3599 seconds
#
# Revision: 5
# Processed by: cddbd v1.5.2PL0 Copyright (c) Steve Scherf et al.
# Submitted via: CDex 1.70beta3
#
DISCID=9f0e0d0c
DTITLE=THE BACK HORN - BEST THE BACK HORN
DYEAR=2008
DGENRE=J-Rock
TTITLE0=サニー
TTITLE1=涙がこぼれたら
TTITLE2=光の結晶
TTITLE3=未来
TTITLE4=キズナソング
TTITLE5=幾千光年の孤独
TTITLE6=生命線
TTITLE7=ひとり言
TTITLE8=美しい名前
TTITLE9=初めての呼吸で
TTITLE10=カオスダイバー
TTITLE11=奇跡
EXTD=YEAR: 2008
EXTT0=
EXTT1=
EXTT2=
EXTT3=
EXTT4=
EXTT5=
EXTT6=
EXTT7=
EXTT8=
EXTT9=
EXTT10=
EXTT11=
PLAYORDER=
